<svg xmlns="http://www.w3.org/2000/svg" viewBox="-1.1319998931884765 0.017999963760375992 5.263999786376953 2.964000072479248"><g data-fish-shoal="true"><ellipse cx="1.5" cy="1.5" rx="2.35" ry="1.2" class="board-water-deep" opacity=".42"></ellipse><ellipse cx="1.3" cy="1.4" rx="1.9" ry=".86" fill="#53b6cd" opacity=".16"></ellipse><g transform="translate(0.55 1.62) scale(0.85) translate(-1.5 -1.5)"><g><ellipse cx="1.5" cy="1.5" rx="1.15" ry=".62" class="board-water-deep" opacity=".55"></ellipse><ellipse cx="1.37" cy="1.42" rx=".88" ry=".39" fill="#53b6cd" opacity=".23"></ellipse><g transform="translate(1.23 1.3599999999999999) scale(1 1)" opacity=".82"><path d="M -.3 0 L -.48 -.12 Q -.4 -.015 -.48 .1 Z" fill="#356e84"></path><path d="M -.34 0 Q -.07 -.19 .24 -.035 Q .36 .025 .23 .065 Q -.08 .16 -.34 0 Z" fill="#87c3cf"></path><path d="M -.27 -.013 Q -.01 -.11 .23 -.025 Q .05 -.014 -.12 .026 Z" fill="#d1e6d7"></path><path d="M -.08 -.04 L -.03 -.16 L .08 -.04 M -.01 .07 L .04 .15 L .14 .06" fill="#548b9b"></path><path d="M .15 -.03 Q .11 .014 .15 .055" fill="none" stroke="#527c87" stroke-width=".018"></path><circle cx=".23" cy=".012" r=".022" fill="#234d63"></circle></g><g transform="translate(1.78 1.67) scale(-1 1)" opacity=".68"><path d="M -.3 0 L -.48 -.12 Q -.4 -.015 -.48 .1 Z" fill="#356e84"></path><path d="M -.34 0 Q -.07 -.19 .24 -.035 Q .36 .025 .23 .065 Q -.08 .16 -.34 0 Z" fill="#87c3cf"></path><path d="M -.27 -.013 Q -.01 -.11 .23 -.025 Q .05 -.014 -.12 .026 Z" fill="#d1e6d7"></path><path d="M -.08 -.04 L -.03 -.16 L .08 -.04 M -.01 .07 L .04 .15 L .14 .06" fill="#548b9b"></path><path d="M .15 -.03 Q .11 .014 .15 .055" fill="none" stroke="#527c87" stroke-width=".018"></path><circle cx=".23" cy=".012" r=".022" fill="#234d63"></circle></g><ellipse cx="1.5" cy="1.5" rx="0.45" ry="0.24" class="board-pond-ripple" opacity="0.95"></ellipse><ellipse cx="1.5" cy="1.5" rx="0.78" ry="0.42" class="board-pond-ripple" opacity="0.6"></ellipse><ellipse cx="1.5" cy="1.5" rx="1.08" ry="0.58" class="board-pond-ripple" opacity="0.35"></ellipse><path d="M 0.67 1.31 Q 0.96 1.08 1.37 1.13 M 1.87 1.85 Q 2.2199999999999998 1.81 2.36 1.62" fill="none" stroke="#d2f0e9" stroke-width=".036" stroke-linecap="round" opacity=".8"></path><circle cx="1" cy="1.54" r="0.045" class="board-water-foam" opacity=".75"></circle><circle cx="2.02" cy="1.48" r="0.045" class="board-water-foam" opacity=".75"></circle><circle cx="2.18" cy="1.63" r="0.027" class="board-water-foam" opacity=".75"></circle><circle cx="0.8" cy="1.42" r="0.024" class="board-water-foam" opacity=".75"></circle></g></g><g transform="translate(2.45 1.4) scale(0.8) translate(-1.5 -1.5)"><g><ellipse cx="1.5" cy="1.5" rx="1.15" ry=".62" class="board-water-deep" opacity=".55"></ellipse><ellipse cx="1.37" cy="1.42" rx=".88" ry=".39" fill="#53b6cd" opacity=".23"></ellipse><g transform="translate(1.23 1.3599999999999999) scale(1 1)" opacity=".82"><path d="M -.3 0 L -.48 -.12 Q -.4 -.015 -.48 .1 Z" fill="#356e84"></path><path d="M -.34 0 Q -.07 -.19 .24 -.035 Q .36 .025 .23 .065 Q -.08 .16 -.34 0 Z" fill="#87c3cf"></path><path d="M -.27 -.013 Q -.01 -.11 .23 -.025 Q .05 -.014 -.12 .026 Z" fill="#d1e6d7"></path><path d="M -.08 -.04 L -.03 -.16 L .08 -.04 M -.01 .07 L .04 .15 L .14 .06" fill="#548b9b"></path><path d="M .15 -.03 Q .11 .014 .15 .055" fill="none" stroke="#527c87" stroke-width=".018"></path><circle cx=".23" cy=".012" r=".022" fill="#234d63"></circle></g><g transform="translate(1.78 1.67) scale(-1 1)" opacity=".68"><path d="M -.3 0 L -.48 -.12 Q -.4 -.015 -.48 .1 Z" fill="#356e84"></path><path d="M -.34 0 Q -.07 -.19 .24 -.035 Q .36 .025 .23 .065 Q -.08 .16 -.34 0 Z" fill="#87c3cf"></path><path d="M -.27 -.013 Q -.01 -.11 .23 -.025 Q .05 -.014 -.12 .026 Z" fill="#d1e6d7"></path><path d="M -.08 -.04 L -.03 -.16 L .08 -.04 M -.01 .07 L .04 .15 L .14 .06" fill="#548b9b"></path><path d="M .15 -.03 Q .11 .014 .15 .055" fill="none" stroke="#527c87" stroke-width=".018"></path><circle cx=".23" cy=".012" r=".022" fill="#234d63"></circle></g><ellipse cx="1.5" cy="1.5" rx="0.45" ry="0.24" class="board-pond-ripple" opacity="0.95"></ellipse><ellipse cx="1.5" cy="1.5" rx="0.78" ry="0.42" class="board-pond-ripple" opacity="0.6"></ellipse><ellipse cx="1.5" cy="1.5" rx="1.08" ry="0.58" class="board-pond-ripple" opacity="0.35"></ellipse><path d="M 0.67 1.31 Q 0.96 1.08 1.37 1.13 M 1.87 1.85 Q 2.2199999999999998 1.81 2.36 1.62" fill="none" stroke="#d2f0e9" stroke-width=".036" stroke-linecap="round" opacity=".8"></path><circle cx="1" cy="1.54" r="0.045" class="board-water-foam" opacity=".75"></circle><circle cx="2.02" cy="1.48" r="0.045" class="board-water-foam" opacity=".75"></circle><circle cx="2.18" cy="1.63" r="0.027" class="board-water-foam" opacity=".75"></circle><circle cx="0.8" cy="1.42" r="0.024" class="board-water-foam" opacity=".75"></circle></g></g><g transform="translate(1.5 1.52) scale(1.35) translate(-1.5 -1.5)"><g><ellipse cx="1.5" cy="1.5" rx="1.15" ry=".62" class="board-water-deep" opacity=".55"></ellipse><ellipse cx="1.37" cy="1.42" rx=".88" ry=".39" fill="#53b6cd" opacity=".23"></ellipse><g transform="translate(1.23 1.3599999999999999) scale(1 1)" opacity=".82"><path d="M -.3 0 L -.48 -.12 Q -.4 -.015 -.48 .1 Z" fill="#356e84"></path><path d="M -.34 0 Q -.07 -.19 .24 -.035 Q .36 .025 .23 .065 Q -.08 .16 -.34 0 Z" fill="#87c3cf"></path><path d="M -.27 -.013 Q -.01 -.11 .23 -.025 Q .05 -.014 -.12 .026 Z" fill="#d1e6d7"></path><path d="M -.08 -.04 L -.03 -.16 L .08 -.04 M -.01 .07 L .04 .15 L .14 .06" fill="#548b9b"></path><path d="M .15 -.03 Q .11 .014 .15 .055" fill="none" stroke="#527c87" stroke-width=".018"></path><circle cx=".23" cy=".012" r=".022" fill="#234d63"></circle></g><g transform="translate(1.78 1.67) scale(-1 1)" opacity=".68"><path d="M -.3 0 L -.48 -.12 Q -.4 -.015 -.48 .1 Z" fill="#356e84"></path><path d="M -.34 0 Q -.07 -.19 .24 -.035 Q .36 .025 .23 .065 Q -.08 .16 -.34 0 Z" fill="#87c3cf"></path><path d="M -.27 -.013 Q -.01 -.11 .23 -.025 Q .05 -.014 -.12 .026 Z" fill="#d1e6d7"></path><path d="M -.08 -.04 L -.03 -.16 L .08 -.04 M -.01 .07 L .04 .15 L .14 .06" fill="#548b9b"></path><path d="M .15 -.03 Q .11 .014 .15 .055" fill="none" stroke="#527c87" stroke-width=".018"></path><circle cx=".23" cy=".012" r=".022" fill="#234d63"></circle></g><ellipse cx="1.5" cy="1.5" rx="0.45" ry="0.24" class="board-pond-ripple" opacity="0.95"></ellipse><ellipse cx="1.5" cy="1.5" rx="0.78" ry="0.42" class="board-pond-ripple" opacity="0.6"></ellipse><ellipse cx="1.5" cy="1.5" rx="1.08" ry="0.58" class="board-pond-ripple" opacity="0.35"></ellipse><path d="M 0.67 1.31 Q 0.96 1.08 1.37 1.13 M 1.87 1.85 Q 2.2199999999999998 1.81 2.36 1.62" fill="none" stroke="#d2f0e9" stroke-width=".036" stroke-linecap="round" opacity=".8"></path><circle cx="1" cy="1.54" r="0.045" class="board-water-foam" opacity=".75"></circle><circle cx="2.02" cy="1.48" r="0.045" class="board-water-foam" opacity=".75"></circle><circle cx="2.18" cy="1.63" r="0.027" class="board-water-foam" opacity=".75"></circle><circle cx="0.8" cy="1.42" r="0.024" class="board-water-foam" opacity=".75"></circle></g></g><path d="M -0.27 1.25 Q -0.050000000000000044 1.17 0.16999999999999996 1.25" fill="none" stroke="#e8f6ff" stroke-width=".04" stroke-linecap="round" opacity=".75"></path><path d="M 0.6499999999999999 0.88 Q 0.95 0.8 1.25 0.88" fill="none" stroke="#e8f6ff" stroke-width=".04" stroke-linecap="round" opacity=".75"></path><path d="M 1.74 2.1 Q 2 2.02 2.26 2.1" fill="none" stroke="#e8f6ff" stroke-width=".04" stroke-linecap="round" opacity=".75"></path><path d="M 2.8 1.8 Q 3 1.72 3.2 1.8" fill="none" stroke="#e8f6ff" stroke-width=".04" stroke-linecap="round" opacity=".75"></path><path d="M 1.47 0.75 Q 1.65 0.67 1.8299999999999998 0.75" fill="none" stroke="#e8f6ff" stroke-width=".04" stroke-linecap="round" opacity=".75"></path><path d="M 0.1999999999999999 2.05 Q 0.3999999999999999 1.9699999999999998 0.5999999999999999 2.05" fill="none" stroke="#e8f6ff" stroke-width=".04" stroke-linecap="round" opacity=".75"></path></g></svg>