<svg xmlns="http://www.w3.org/2000/svg" width="96" height="96" viewBox="0 0 40 40" fill="none"><ellipse cx="20" cy="34.5" rx="11" ry="2.6" fill="#00000022"></ellipse><path d="M20,31.5 C11,34 3.8,28.5 5.2,20.5 C6.4,13.6 13,10.4 19.6,11.4 C13.6,15 10.2,23.4 20,31.5 Z" fill="#4f8a34" stroke="#336121" stroke-width="0.7" stroke-linejoin="round"></path><path d="M20,31.5 C29,34 36.2,28.5 34.8,20.5 C33.6,13.6 27,10.4 20.4,11.4 C26.4,15 29.8,23.4 20,31.5 Z" fill="#437a2b" stroke="#336121" stroke-width="0.7" stroke-linejoin="round"></path><path d="M18.4,12.6 C12.4,17.4 9.4,24 10.6,29.6" stroke="#3d6b28" stroke-width="0.7" opacity="0.7" fill="none"></path><path d="M21.6,12.6 C27.6,17.4 30.6,24 29.4,29.6" stroke="#33611f" stroke-width="0.7" opacity="0.7" fill="none"></path><ellipse cx="20" cy="23.4" rx="9.2" ry="9.4" fill="#8fbe57" stroke="#4f7a2c" stroke-width="0.8"></ellipse><path d="M20,14.2 C16.4,18 15.6,25 18.2,32.4" stroke="#6d9c3f" stroke-width="0.8" opacity="0.8" fill="none"></path><path d="M20,14.2 C23.6,18 24.4,25 21.8,32.4" stroke="#6d9c3f" stroke-width="0.8" opacity="0.8" fill="none"></path><path d="M20,14.2 C20,20.4 20,27 20,32.8" stroke="#6d9c3f" stroke-width="0.8" opacity="0.8" fill="none"></path><ellipse cx="24.6" cy="27.6" rx="6" ry="3.8" fill="#33611f" opacity="0.22" transform="rotate(-38 24.6 27.6)"></ellipse><ellipse cx="16" cy="19.2" rx="3.6" ry="2.4" fill="#d6e9a4" opacity="0.45" transform="rotate(-32 16 19.2)"></ellipse></svg>