<svg xmlns="http://www.w3.org/2000/svg" width="96" height="96" viewBox="0 0 40 40" fill="none"><ellipse cx="20" cy="20" rx="13" ry="15" fill="#9a5cf0" opacity="0.07"></ellipse><ellipse cx="20" cy="20" rx="9" ry="11" fill="#9a5cf0" opacity="0.1"></ellipse><ellipse cx="20" cy="20" rx="5.5" ry="7.5" fill="#b07cf8" opacity="0.14"></ellipse><ellipse cx="20" cy="36" rx="7" ry="1.6" fill="#00000018"></ellipse><path d="M17,5 L24,8 L25.5,17 L23,24 L20.5,35 L16.5,24 L14,15 Z" fill="#6a34c8" stroke="#38156e" stroke-width="0.9" stroke-linejoin="round"></path><path d="M17,5 L19.5,16 L20.5,35" stroke="#38156e" stroke-width="0.6" opacity="0.7" fill="none"></path><path d="M19.5,16 L25.5,17 M19.5,16 L14,15" stroke="#38156e" stroke-width="0.5" opacity="0.55" fill="none"></path><path d="M17,5 L19.5,16 L14,15 Z" fill="#9a68e8" opacity="0.85"></path><path d="M18.6,8 Q19.6,18 20.3,30" stroke="#e6d4ff" stroke-width="1.1" fill="none" opacity="0.9" stroke-linecap="round"></path><path d="M23,10.5 l1.2,0 M23.6,9.9 l0,1.2" stroke="#f2e8ff" stroke-width="0.6" opacity="0.95"></path><circle cx="16.4" cy="19" r="0.6" fill="#e6d4ff" opacity="0.9"></circle></svg>