<svg xmlns="http://www.w3.org/2000/svg" width="96" height="96" viewBox="0 0 40 40" fill="none"><path d="M20,5.5 a11.5,14.5 0 1 1 0,29 a11.5,14.5 0 1 1 0,-29 Z" fill="#6a6a7a" opacity="0.16"></path><ellipse cx="20" cy="20" rx="11" ry="13.5" fill="#2a2a33"></ellipse><path d="M27.78,10.45 A11,13.5 0 0 1 12.22,29.55 A15,18 0 0 0 27.78,10.45 Z" fill="#101015" opacity="0.55"></path><path d="M14.6,9.5 C10.4,14.5 10,25.5 14.8,30.8 C11.8,24.6 11.9,15 14.6,9.5 Z" fill="#8a8a9a" opacity="0.85"></path><path d="M25.8,11.4 C28.6,15.4 29,24 26.4,28.6 C29.6,24.2 29.4,15.6 25.8,11.4 Z" fill="#8a8a9a" opacity="0.4"></path><ellipse cx="17.8" cy="12.4" rx="2.4" ry="1.5" fill="#8a8a9a" opacity="0.5"></ellipse><ellipse cx="20" cy="20" rx="11" ry="13.5" fill="none" stroke="#8a8a9a" stroke-width="1.1" opacity="0.55"></ellipse></svg>