<svg xmlns="http://www.w3.org/2000/svg" width="96" height="96" viewBox="0 0 40 40" fill="none"><ellipse cx="20" cy="34.6" rx="7.6" ry="2.2" fill="#00000022"></ellipse><path d="M17.2,19.6 C16.4,25 15.8,29.6 15.2,33.4 C17.8,34.4 22.2,34.4 24.8,33.4 C24.2,29.6 23.6,25 22.8,19.6 Z" fill="#e6dcc4" stroke="#a89873" stroke-width="0.8" stroke-linejoin="round"></path><path d="M16.6,23.4 C18.8,24.4 21.2,24.4 23.4,23.4" stroke="#bfae86" stroke-width="0.9" stroke-linecap="round" fill="none"></path><path d="M11.6,18.6 C14.6,21.4 25.4,21.4 28.4,18.6 Z" fill="#c4b391" stroke="#9c8a64" stroke-width="0.6" stroke-linejoin="round"></path><path d="M13.6,19 L14.751999999999999,20.9" stroke="#9c8a64" stroke-width="0.5" opacity="0.7"></path><path d="M15.8,19 L16.556,20.9" stroke="#9c8a64" stroke-width="0.5" opacity="0.7"></path><path d="M18,19 L18.36,20.9" stroke="#9c8a64" stroke-width="0.5" opacity="0.7"></path><path d="M20,19 L20,20.9" stroke="#9c8a64" stroke-width="0.5" opacity="0.7"></path><path d="M22,19 L21.64,20.9" stroke="#9c8a64" stroke-width="0.5" opacity="0.7"></path><path d="M24.2,19 L23.444,20.9" stroke="#9c8a64" stroke-width="0.5" opacity="0.7"></path><path d="M26.4,19 L25.247999999999998,20.9" stroke="#9c8a64" stroke-width="0.5" opacity="0.7"></path><path d="M20,7.4 C27.4,7.4 31.6,13.4 31.6,17.4 C31.6,19.6 26.4,20.8 20,20.8 C13.6,20.8 8.4,19.6 8.4,17.4 C8.4,13.4 12.6,7.4 20,7.4 Z" fill="#a5642f" stroke="#6d3d17" stroke-width="0.8" stroke-linejoin="round"></path><ellipse cx="16.4" cy="12.4" rx="1.5" ry="1.1" fill="#e8d9b8" opacity="0.8"></ellipse><ellipse cx="22.8" cy="11.2" rx="1.2" ry="0.9" fill="#e8d9b8" opacity="0.7"></ellipse><ellipse cx="26.2" cy="15.4" rx="1.3" ry="0.9" fill="#e8d9b8" opacity="0.6"></ellipse><ellipse cx="12.8" cy="16.2" rx="1.1" ry="0.8" fill="#e8d9b8" opacity="0.55"></ellipse><ellipse cx="26.4" cy="17" rx="5.4" ry="3" fill="#5a2f10" opacity="0.24" transform="rotate(-16 26.4 17)"></ellipse><ellipse cx="15.4" cy="11.4" rx="4" ry="2.2" fill="#d99a5c" opacity="0.45" transform="rotate(-28 15.4 11.4)"></ellipse></svg>