<svg xmlns="http://www.w3.org/2000/svg" width="96" height="96" viewBox="0 0 40 40" fill="none"><g transform="translate(-3.5,-4)"><path d="M10.5,7 Q10.5,5.5 12,5.5 L21.5,5.5 Q23,5.5 23,7 L23,24 Q26,25.2 30,26.8 Q34,28.6 34,30.5 L10.5,30.5 Z" fill="#7e5f34" stroke="#241a0d" stroke-width="0.9" stroke-linejoin="round"></path></g><path d="M9,30 L35,30 Q36,30 36,31.6 Q36,33.3 34,33.3 L10,33.3 Q9,33.3 9,32 Z" fill="#241a0d"></path><rect x="9" y="30" width="5.5" height="4" rx="1" fill="#1b130a"></rect><path d="M10.5,7 Q10.5,5.5 12,5.5 L21.5,5.5 Q23,5.5 23,7 L23,24 Q26,25.2 30,26.8 Q34,28.6 34,30.5 L10.5,30.5 Z" fill="#c9a46c" stroke="#7e5f34" stroke-width="0.9" stroke-linejoin="round"></path><rect x="11.4" y="6.5" width="2" height="22" fill="#e8cc98" opacity="0.6"></rect><path d="M20,6 L23,6 L23,24 L20.4,23.4 Z" fill="#000000" opacity="0.1"></path><g><path d="M10.2,7.4 L23.3,10.2 L23.3,13 L10.2,10.2 Z" fill="#2f3c78" stroke="#241a0d" stroke-width="0.6" stroke-linejoin="round"></path><path d="M10.2,8.8 L23.3,11.6" stroke="#000000" stroke-width="0.5" opacity="0.4"></path><path d="M10.2,7.4 L23.3,10.2" stroke="#ffffff" stroke-width="0.5" opacity="0.3"></path></g><g><path d="M10.2,15.8 L23.3,12.8 L23.3,15.6 L10.2,18.6 Z" fill="#2f3c78" stroke="#241a0d" stroke-width="0.6" stroke-linejoin="round"></path><path d="M10.2,17.200000000000003 L23.3,14.2" stroke="#000000" stroke-width="0.5" opacity="0.4"></path><path d="M10.2,15.8 L23.3,12.8" stroke="#ffffff" stroke-width="0.5" opacity="0.3"></path></g><g><rect x="10.6" y="21.4" width="12.6" height="2" fill="#7e5f34" opacity="0.55"></rect><rect x="19.5" y="21.299999999999997" width="2.2" height="2.2" fill="#a8843e" stroke="#4a3510" stroke-width="0.35"></rect><path d="M20.1,22.4 L21.1,22.4" stroke="#4a3510" stroke-width="0.35"></path></g><path d="M28,27 Q31,28 33,30" stroke="#7e5f34" stroke-width="0.5" fill="none" opacity="0.6"></path></svg>