<svg xmlns="http://www.w3.org/2000/svg" width="96" height="96" viewBox="0 0 40 40" fill="none"><ellipse cx="20.6" cy="35.8" rx="12" ry="2" fill="#0000001c"></ellipse><circle cx="20" cy="20.4" r="13" fill="#6d7378" stroke="#2c3034" stroke-width="0.9"></circle><circle cx="30.8" cy="20.4" r="0.9" fill="#c8cdd0" stroke="#2c3034" stroke-width="0.3"></circle><circle cx="25.4" cy="29.75" r="0.9" fill="#c8cdd0" stroke="#2c3034" stroke-width="0.3"></circle><circle cx="14.6" cy="29.75" r="0.9" fill="#c8cdd0" stroke="#2c3034" stroke-width="0.3"></circle><circle cx="9.2" cy="20.4" r="0.9" fill="#c8cdd0" stroke="#2c3034" stroke-width="0.3"></circle><circle cx="14.6" cy="11.05" r="0.9" fill="#c8cdd0" stroke="#2c3034" stroke-width="0.3"></circle><circle cx="25.4" cy="11.05" r="0.9" fill="#c8cdd0" stroke="#2c3034" stroke-width="0.3"></circle><circle cx="20" cy="20" r="8.4" fill="#9aa1a6" stroke="#2c3034" stroke-width="0.8"></circle><path d="M20,28.4 A8.4,8.4 0 0 0 28.4,20 A9.6,9.6 0 0 1 20,28.4 Z" fill="#7c8388"></path><path d="M24,15 Q25.4,16.6 24.8,18.4" stroke="#5a6064" stroke-width="0.5"></path><circle cx="20" cy="20" r="2" fill="#c8cdd0" stroke="#2c3034" stroke-width="0.5"></circle><path d="M14.6,16 Q16,13.2 19,12.4" stroke="#e2e6e8" stroke-width="1.1" stroke-linecap="round"></path></svg>