<svg xmlns="http://www.w3.org/2000/svg" width="96" height="96" viewBox="0 0 40 40" fill="none"><ellipse cx="20" cy="34.5" rx="11" ry="2.4" fill="#00000020"></ellipse><path d="M9,27 Q7.5,20 13,16.5 Q16,12.5 21,13 Q26,11.5 29.5,15.5 Q33.5,19 32,24.5 Q33,29 28.5,31 Q24,33.5 18,32.8 Q11,32.5 9,27 Z" fill="#3e3222" stroke="#1e160c" stroke-width="0.9" stroke-linejoin="round"></path><path d="M11,24 Q17,26.5 24,25.5 M12.5,20 Q18,22 26,20.5 M15,28.5 Q20,30 26,29" stroke="#1e160c" stroke-width="0.6" fill="none" opacity="0.55"></path><path d="M14,17.5 Q15.5,15 16,13.5 M23,14.5 Q23.5,12.5 25,11.5 M28.5,17 Q30.5,16 31.5,14.5" stroke="#8a6e42" stroke-width="0.7" fill="none" opacity="0.85" stroke-linecap="round"></path><path d="M10,29.5 Q7.5,30.5 6,30 M30,29 Q32.5,30 34,29.2" stroke="#8a6e42" stroke-width="0.6" fill="none" opacity="0.8" stroke-linecap="round"></path><path d="M13.5,17.5 Q18,15.5 23,15.8" stroke="#7a6342" stroke-width="1.3" fill="none" opacity="0.85" stroke-linecap="round"></path><circle cx="24.5" cy="17.2" r="0.7" fill="#7a8a44" opacity="0.85"></circle><circle cx="15.5" cy="20.5" r="0.6" fill="#6d7a3a" opacity="0.8"></circle><circle cx="8.5" cy="31.5" r="0.8" fill="#3e3222"></circle><circle cx="32" cy="31.8" r="0.7" fill="#3e3222"></circle></svg>